<?xml version="1.0" encoding="UTF-8" standalone="no"?>
<!-- Created with Inkscape (http://www.inkscape.org/) -->

<svg
   width="48"
   height="48"
   viewBox="0 0 12.7 12.7"
   version="1.1"
   id="svg256"
   inkscape:version="1.2 (dc2aedaf03, 2022-05-15)"
   sodipodi:docname="logo.svg"
   xml:space="preserve"
   xmlns:inkscape="http://www.inkscape.org/namespaces/inkscape"
   xmlns:sodipodi="http://sodipodi.sourceforge.net/DTD/sodipodi-0.dtd"
   xmlns="http://www.w3.org/2000/svg"
   xmlns:svg="http://www.w3.org/2000/svg"><sodipodi:namedview
     id="namedview258"
     pagecolor="#505050"
     bordercolor="#eeeeee"
     borderopacity="1"
     inkscape:showpageshadow="0"
     inkscape:pageopacity="0"
     inkscape:pagecheckerboard="0"
     inkscape:deskcolor="#505050"
     inkscape:document-units="mm"
     showgrid="false"
     inkscape:zoom="11.816274"
     inkscape:cx="15.444801"
     inkscape:cy="30.339513"
     inkscape:window-width="1350"
     inkscape:window-height="1000"
     inkscape:window-x="291"
     inkscape:window-y="0"
     inkscape:window-maximized="0"
     inkscape:current-layer="layer1" /><defs
     id="defs253"><rect
       x="147.45013"
       y="308.30481"
       width="184.7509"
       height="95.746834"
       id="rect431" /></defs><g
     inkscape:label="Layer 1"
     inkscape:groupmode="layer"
     id="layer1"><path
       d="m 12.702725,5.9954174 -0.06353,0.5598575 -0.68493,0.04567 -0.0397,0.35934 0.684931,-0.04567 -0.06353,0.559856 -0.682946,0.04367 -0.04567,0.399047 0.682946,-0.04367 -0.05957,0.518164 -1.284492,0.0814 0.252134,-2.247366 -0.93905,2.291043 -0.6333131,0.0397 -0.4725025,-2.3386908 0.6015471,-0.039705 0.2700025,1.5763338 0.62934,-1.6358916 z m -4.2326715,2.6464125 0.5618419,-0.03574 0.2561047,-2.3843515 -0.563828,0.03773 z m -5.257089,0.329562 -0.3851493,-0.714711 -0.06948,0.742505 -0.5598575,0.03374 0.053605,-0.577724 c -0.2183893,0.357357 -0.6353045,0.680962 -1.1296451,0.710742 -0.65117993,0.039705 -1.18522763,-0.414929 -1.11971228,-1.155448 0.05161853,-0.581694 0.5300763,-1.246771 1.34008118,-1.29839 0.7484604,-0.04764 0.9450055,0.460591 1.018461,0.571769 l 0.055598,-0.611474 0.7722848,-0.04964 c 0.3990452,-0.02581 0.7683124,0.07345 0.8437541,0.470518 l 0.051611,-0.528091 1.2864786,-0.08338 -0.053605,0.553901 -0.7226506,0.04764 -0.033743,0.35537 0.7226506,-0.04567 -0.053605,0.553899 -0.7226506,0.04567 -0.03773,0.395076 0.7206662,-0.04567 -0.041698,0.412943 1.0919179,-2.326778 0.4725025,-0.031768 0.6372835,2.195749 0.1766908,-1.699421 -0.4427227,0.0278 0.057573,-0.5539015 1.4889805,-0.097279 -0.059567,0.5558845 -0.4824297,0.03177 -0.1925746,1.824497 -1.1514774,0.07345 -0.085372,-0.309708 -0.7822101,0.04964 -0.1588209,0.323604 z m -0.8794906,-1.393686 -0.524121,0.03375 c -0.1330151,-0.246177 -0.2858835,-0.32956 -0.522135,-0.313678 -0.37720802,0.02383 -0.66110641,0.347429 -0.68691567,0.661109 -0.0277954,0.317647 0.14492664,0.645222 0.56978257,0.619413 0.2541193,-0.01588 0.4228703,-0.170745 0.5737536,-0.375222 L 2.279871,8.1693379 Z M 3.4472305,7.4248469 C 3.4710553,7.1687339 3.2963472,7.1548359 2.9290661,7.1786609 l -0.053605,0.565812 c 0.2819122,-0.01787 0.545958,-0.0417 0.5717673,-0.319635 z m 0.4188996,1.405598 0.1151468,-1.191184 c -0.099272,0.268016 -0.2918394,0.418899 -0.553899,0.528091 z M 6.5542342,7.9370479 6.3973942,7.1866019 6.083716,7.9668259 Z M 3.1772298,6.4560084 3.0918574,6.1085799 2.3056767,6.1601984 2.1448627,6.5215249 1.5115506,6.5632159 2.6431745,4.1431282 3.1176632,4.111364 3.7271513,6.1363753 3.9236964,4.0577604 4.4597291,4.0220239 5.2101751,5.2846784 5.3392214,3.9624647 5.9050338,3.9247421 5.8256234,4.7426873 C 5.9725379,4.474671 6.2802577,3.8552563 7.0882771,3.7996676 7.892326,3.7440785 8.1285781,4.3813622 8.1484307,4.4012154 l 0.065511,-0.635298 0.7802258,-0.053603 c 0.2521342,-0.017866 0.5519147,0.00596 0.7206662,0.1925745 l -0.087348,-0.2362514 0.6392693,-0.043678 0.256105,0.857652 0.45662,-0.9072848 0.615445,-0.043676 -0.865595,1.5564798 -0.0953,0.8794906 -0.563826,0.03773 0.0953,-0.8794906 L 9.8518264,4.2721794 C 9.8716878,4.7149025 9.6691789,5.0682877 9.216529,5.25689 L 9.7168251,6.0271886 8.9941745,6.0748314 8.6129957,5.3442397 8.5335853,6.1046111 7.9697591,6.1423408 8.03527,5.5169706 C 7.9022567,5.7015936 7.6441676,6.219758 6.8520302,6.2713748 6.3318797,6.3051268 5.9467304,6.0668885 5.7521714,5.4931369 L 5.672761,6.2932135 5.1764353,6.3249777 4.4299598,5.0682788 4.3048823,6.3825511 Z M 8.6685848,4.8260736 C 8.8710849,4.8121388 9.0160133,4.7843752 9.0974098,4.7407012 9.1867509,4.6930585 9.2363869,4.6136481 9.2482931,4.5004785 9.2602876,4.3952571 9.2362987,4.3257721 9.180789,4.2940065 9.1093161,4.2523152 8.9703461,4.2384175 8.7261529,4.2543013 Z M 6.5026156,5.5149739 c 0.1111781,0.11714 0.2521342,0.1687515 0.4228702,0.1568452 0.09331,-0.006 0.180663,-0.035736 0.2640457,-0.081404 0.1091849,-0.059566 0.2104429,-0.1588204 0.2997823,-0.283898 l -0.6789749,0.045667 0.047643,-0.4744887 1.2527283,-0.085372 0.02383,-0.2382366 -0.6194153,0.041698 C 7.4337212,4.5223208 7.3602727,4.4647456 7.2947547,4.4349658 7.2153443,4.4012155 7.1339407,4.3793768 7.0525477,4.3853334 6.8937269,4.3952642 6.7487967,4.4568046 6.6157816,4.5679809 6.4629051,4.695034 6.3775451,4.8558516 6.3596769,5.0523968 6.3378399,5.2429853 6.3874758,5.3958547 6.5026227,5.5149721 Z M 2.5061959,5.6777634 2.9786985,5.6459957 2.8139157,4.8995203 Z"
       id="path2969"
       style="stroke-width:0.019853;fill:#fffff9;fill-opacity:1" /></g></svg>
