<?xml version="1.0" encoding="UTF-8" standalone="no"?>
<svg
   viewBox="0 0 48 48"
   version="1.1"
   id="svg4"
   sodipodi:docname="instagram-brands.svg"
   inkscape:version="1.2 (dc2aedaf03, 2022-05-15)"
   width="48"
   height="48"
   xmlns:inkscape="http://www.inkscape.org/namespaces/inkscape"
   xmlns:sodipodi="http://sodipodi.sourceforge.net/DTD/sodipodi-0.dtd"
   xmlns="http://www.w3.org/2000/svg"
   xmlns:svg="http://www.w3.org/2000/svg">
  <defs
     id="defs8" />
  <sodipodi:namedview
     id="namedview6"
     pagecolor="#505050"
     bordercolor="#eeeeee"
     borderopacity="1"
     inkscape:showpageshadow="0"
     inkscape:pageopacity="0"
     inkscape:pagecheckerboard="0"
     inkscape:deskcolor="#505050"
     showgrid="false"
     inkscape:zoom="9.1592424"
     inkscape:cx="8.5159882"
     inkscape:cy="32.207904"
     inkscape:window-width="1920"
     inkscape:window-height="1009"
     inkscape:window-x="-8"
     inkscape:window-y="-8"
     inkscape:window-maximized="1"
     inkscape:current-layer="svg4" />
  <!--! Font Awesome Pro 6.1.1 by @fontawesome - https://fontawesome.com License - https://fontawesome.com/license (Commercial License) Copyright 2022 Fonticons, Inc. -->
  <path
     d="m 23.920745,11.573512 c -6.834497,0 -12.347234,5.512737 -12.347234,12.347234 0,6.834507 5.512737,12.347234 12.347234,12.347234 6.834507,0 12.347234,-5.512727 12.347234,-12.347234 0,-6.834497 -5.512727,-12.347234 -12.347234,-12.347234 z m 0,20.374549 c -4.416633,0 -8.027315,-3.599932 -8.027315,-8.027315 0,-4.427372 3.599942,-8.027315 8.027315,-8.027315 4.427383,0 8.027314,3.599943 8.027314,8.027315 0,4.427383 -3.610681,8.027315 -8.027314,8.027315 z m 15.73225,-20.879608 c 0,1.601164 -1.289532,2.879945 -2.879946,2.879945 -1.601163,0 -2.879946,-1.289531 -2.879946,-2.879945 0,-1.5904246 1.289522,-2.8799466 2.879946,-2.8799466 1.590414,0 2.879946,1.289522 2.879946,2.8799466 z m 8.177756,2.922932 C 47.64807,10.133539 46.766895,6.7162955 43.940675,3.9008254 41.125206,1.0853555 37.707951,0.2041787 33.850114,0.01074037 c -3.976039,-0.22566636 -15.893439,-0.22566636 -19.869478,0 C 10.133539,0.19342937 6.7162944,1.0746062 3.890075,3.8900759 1.0638558,6.7055466 0.19342835,10.1228 0,13.980636 c -0.22566637,3.97604 -0.22566637,15.89344 0,19.869479 0.18267901,3.857837 1.0638558,7.275091 3.890075,10.09056 2.8262194,2.815471 6.232724,3.696648 10.090561,3.890076 3.976039,0.225666 15.893439,0.225666 19.869478,0 3.857838,-0.18268 7.275092,-1.063856 10.090561,-3.890076 2.81547,-2.815469 3.696646,-6.232723 3.890076,-10.09056 0.225666,-3.976039 0.225666,-15.88269 0,-19.85873 z M 42.69413,38.116308 c -0.838188,2.106234 -2.460851,3.728886 -4.577822,4.577823 -3.170088,1.257294 -10.692345,0.967141 -14.195563,0.967141 -3.503218,0 -11.036214,0.279403 -14.1955525,-0.967141 C 7.6189598,41.855943 5.9963077,40.23328 5.1473696,38.116308 3.890075,34.946221 4.1802174,27.423963 4.1802174,23.920745 c 0,-3.503218 -0.279393,-11.036213 0.9671522,-14.1955514 C 5.9855588,7.618961 7.60822,5.9963088 9.7251925,5.1473707 12.895281,3.8900759 20.417527,4.1802185 23.920745,4.1802185 c 3.503218,0 11.036213,-0.2793931 14.195563,0.9671522 2.106232,0.8381892 3.728885,2.4608414 4.577822,4.5778229 1.257294,3.1700884 0.967141,10.6923334 0.967141,14.1955514 0,3.503218 0.290153,11.036214 -0.967141,14.195563 z"
     id="path2"
     style="fill:#ffffff;fill-opacity:0.75438601;stroke-width:0.107461" />
</svg>
