<?xml version="1.0" encoding="UTF-8" standalone="no"?>
<!-- Created with Inkscape (http://www.inkscape.org/) -->

<svg
   width="200mm"
   height="173.10001mm"
   viewBox="0 0 200 173.10001"
   version="1.1"
   id="svg5"
   xml:space="preserve"
   inkscape:version="1.2 (dc2aedaf03, 2022-05-15)"
   sodipodi:docname="table.svg"
   xmlns:inkscape="http://www.inkscape.org/namespaces/inkscape"
   xmlns:sodipodi="http://sodipodi.sourceforge.net/DTD/sodipodi-0.dtd"
   xmlns="http://www.w3.org/2000/svg"
   xmlns:svg="http://www.w3.org/2000/svg"><sodipodi:namedview
     id="namedview7"
     pagecolor="#505050"
     bordercolor="#eeeeee"
     borderopacity="1"
     inkscape:showpageshadow="0"
     inkscape:pageopacity="0"
     inkscape:pagecheckerboard="0"
     inkscape:deskcolor="#505050"
     inkscape:document-units="mm"
     showgrid="false"
     inkscape:zoom="0.5"
     inkscape:cx="794"
     inkscape:cy="482"
     inkscape:window-width="1920"
     inkscape:window-height="1009"
     inkscape:window-x="-8"
     inkscape:window-y="-8"
     inkscape:window-maximized="1"
     inkscape:current-layer="layer1" /><defs
     id="defs2"><rect
       x="42.426407"
       y="51.49165"
       width="343.04468"
       height="78.906631"
       id="rect5532" /></defs><g
     inkscape:label="Layer 1"
     inkscape:groupmode="layer"
     id="layer1"><rect
       style="fill:#323232;fill-opacity:1;stroke-width:0.8426"
       id="rect1731"
       width="1.3619485"
       height="173.07399"
       x="132.85257"
       y="1.6847634e-14"
       ry="0.68097425" /><rect
       style="fill:#323232;fill-opacity:1;stroke-width:0.88582"
       id="rect1731-4-4"
       width="1.3039106"
       height="199.80023"
       x="72.282173"
       y="-199.80023"
       transform="rotate(90)"
       ry="0.65195531" /><rect
       style="fill:#323232;fill-opacity:1;stroke-width:0.88582"
       id="rect1731-4-4-9"
       width="1.3039105"
       height="199.8002"
       x="121.33958"
       y="-199.80023"
       transform="rotate(90)"
       ry="0.65195525" /><rect
       style="fill:#323232;fill-opacity:1;stroke-width:0.88582"
       id="rect1731-4-4-9-2"
       width="1.3039105"
       height="199.8002"
       x="145.86824"
       y="-199.80023"
       transform="rotate(90)"
       ry="0.65195525" /><rect
       style="fill:#323232;fill-opacity:1;stroke-width:0.88582"
       id="rect1731-4-4-9-3"
       width="1.3039105"
       height="199.8002"
       x="96.81086"
       y="-199.80023"
       transform="rotate(90)"
       ry="0.65195525" /><rect
       style="fill:#323232;fill-opacity:1;stroke-width:0.8426"
       id="rect1731-9"
       width="1.3619485"
       height="173.07399"
       x="154.9118"
       y="1.6847634e-14"
       ry="0.68097425" /><rect
       style="fill:#323232;fill-opacity:1;stroke-width:0.8426"
       id="rect1731-9-5"
       width="1.3619485"
       height="173.07399"
       x="176.97102"
       y="1.6847634e-14"
       ry="0.68097425" /><rect
       style="fill:#323232;fill-opacity:1;stroke-width:0.88582"
       id="rect1731-4"
       width="1.3039106"
       height="199.80023"
       x="23.224783"
       y="-199.80023"
       transform="rotate(90)"
       ry="0.65195531" /><rect
       style="fill:#323232;fill-opacity:1;stroke-width:0.88582"
       id="rect1731-4-6"
       width="1.3039106"
       height="199.80023"
       x="47.753475"
       y="-199.80023"
       transform="rotate(90)"
       ry="0.65195531" /><text
       xml:space="preserve"
       transform="scale(0.26458333)"
       id="text5530"
       style="font-weight:bold;font-size:53.3333px;font-family:Georgia;-inkscape-font-specification:'Georgia Bold';text-align:center;white-space:pre;shape-inside:url(#rect5532);display:inline;fill:#323232;fill-opacity:1;stroke-width:3.78" /><text
       xml:space="preserve"
       style="font-weight:bold;font-size:10.1255px;font-family:Georgia;-inkscape-font-specification:'Georgia Bold';text-align:center;text-anchor:middle;fill:#ffffff;fill-opacity:0.75;stroke-width:0.717644"
       x="63.448898"
       y="15.610748"
       id="text5538"><tspan
         sodipodi:role="line"
         id="tspan5536"
         style="font-style:normal;font-variant:normal;font-weight:normal;font-stretch:normal;font-family:Georgia;-inkscape-font-specification:Georgia;fill:#ffffff;fill-opacity:0.75;stroke-width:0.717644"
         x="63.448898"
         y="15.610748">Description of package</tspan></text><text
       xml:space="preserve"
       style="font-weight:bold;font-size:10.1255px;font-family:Georgia;-inkscape-font-specification:'Georgia Bold';text-align:center;text-anchor:middle;fill:#ffffff;fill-opacity:0.75;stroke-width:0.717644"
       x="66.106339"
       y="33.555313"
       id="text5538-3"><tspan
         sodipodi:role="line"
         style="font-style:normal;font-variant:normal;font-weight:normal;font-stretch:normal;font-family:Georgia;-inkscape-font-specification:Georgia;fill:#ffffff;fill-opacity:0.75;stroke-width:0.717644"
         x="66.106339"
         y="33.555313"
         id="tspan8649">Nulla neque enim ligula</tspan><tspan
         sodipodi:role="line"
         style="font-style:normal;font-variant:normal;font-weight:normal;font-stretch:normal;font-family:Georgia;-inkscape-font-specification:Georgia;fill:#ffffff;fill-opacity:0.75;stroke-width:0.717644"
         x="66.106339"
         y="46.212158"
         id="tspan8658"> id venenatis dolor</tspan></text><text
       xml:space="preserve"
       style="font-weight:bold;font-size:10.1255px;font-family:Georgia;-inkscape-font-specification:'Georgia Bold';text-align:center;text-anchor:middle;fill:#ffffff;fill-opacity:0.75;stroke-width:0.717644"
       x="66.106339"
       y="58.084007"
       id="text5538-3-9"><tspan
         sodipodi:role="line"
         style="font-style:normal;font-variant:normal;font-weight:normal;font-stretch:normal;font-family:Georgia;-inkscape-font-specification:Georgia;fill:#ffffff;fill-opacity:0.75;stroke-width:0.717644"
         x="66.106339"
         y="58.084007"
         id="tspan8649-8">Nulla neque enim ligula</tspan><tspan
         sodipodi:role="line"
         style="font-style:normal;font-variant:normal;font-weight:normal;font-stretch:normal;font-family:Georgia;-inkscape-font-specification:Georgia;fill:#ffffff;fill-opacity:0.75;stroke-width:0.717644"
         x="66.106339"
         y="70.740852"
         id="tspan8658-6"> id venenatis dolor</tspan></text><text
       xml:space="preserve"
       style="font-weight:bold;font-size:10.1255px;font-family:Georgia;-inkscape-font-specification:'Georgia Bold';text-align:center;text-anchor:middle;fill:#ffffff;fill-opacity:0.75;stroke-width:0.717644"
       x="66.106339"
       y="82.612701"
       id="text5538-3-9-5"><tspan
         sodipodi:role="line"
         style="font-style:normal;font-variant:normal;font-weight:normal;font-stretch:normal;font-family:Georgia;-inkscape-font-specification:Georgia;fill:#ffffff;fill-opacity:0.75;stroke-width:0.717644"
         x="66.106339"
         y="82.612701"
         id="tspan8649-8-5">Nulla neque enim ligula</tspan><tspan
         sodipodi:role="line"
         style="font-style:normal;font-variant:normal;font-weight:normal;font-stretch:normal;font-family:Georgia;-inkscape-font-specification:Georgia;fill:#ffffff;fill-opacity:0.75;stroke-width:0.717644"
         x="66.106339"
         y="95.269547"
         id="tspan8658-6-3"> id venenatis dolor</tspan></text><text
       xml:space="preserve"
       style="font-weight:bold;font-size:10.1255px;font-family:Georgia;-inkscape-font-specification:'Georgia Bold';text-align:center;text-anchor:middle;fill:#ffffff;fill-opacity:0.75;stroke-width:0.717644"
       x="66.106339"
       y="107.1414"
       id="text5538-3-9-57"><tspan
         sodipodi:role="line"
         style="font-style:normal;font-variant:normal;font-weight:normal;font-stretch:normal;font-family:Georgia;-inkscape-font-specification:Georgia;fill:#ffffff;fill-opacity:0.75;stroke-width:0.717644"
         x="66.106339"
         y="107.1414"
         id="tspan8649-8-8">Nulla neque enim ligula</tspan><tspan
         sodipodi:role="line"
         style="font-style:normal;font-variant:normal;font-weight:normal;font-stretch:normal;font-family:Georgia;-inkscape-font-specification:Georgia;fill:#ffffff;fill-opacity:0.75;stroke-width:0.717644"
         x="66.106339"
         y="119.79825"
         id="tspan8658-6-33"> id venenatis dolor</tspan></text><text
       xml:space="preserve"
       style="font-weight:bold;font-size:10.1255px;font-family:Georgia;-inkscape-font-specification:'Georgia Bold';text-align:center;text-anchor:middle;fill:#ffffff;fill-opacity:0.75;stroke-width:0.717644"
       x="66.106339"
       y="131.67009"
       id="text5538-3-9-4"><tspan
         sodipodi:role="line"
         style="font-style:normal;font-variant:normal;font-weight:normal;font-stretch:normal;font-family:Georgia;-inkscape-font-specification:Georgia;fill:#ffffff;fill-opacity:0.75;stroke-width:0.717644"
         x="66.106339"
         y="131.67009"
         id="tspan8649-8-0">Nulla neque enim ligula</tspan><tspan
         sodipodi:role="line"
         style="font-style:normal;font-variant:normal;font-weight:normal;font-stretch:normal;font-family:Georgia;-inkscape-font-specification:Georgia;fill:#ffffff;fill-opacity:0.75;stroke-width:0.717644"
         x="66.106339"
         y="144.32693"
         id="tspan8658-6-4"> id venenatis dolor</tspan></text><text
       xml:space="preserve"
       style="font-weight:bold;font-size:10.1255px;font-family:Georgia;-inkscape-font-specification:'Georgia Bold';text-align:center;text-anchor:middle;fill:#ffffff;fill-opacity:0.75;stroke-width:0.717644"
       x="66.106339"
       y="156.19878"
       id="text5538-3-9-4-1"><tspan
         sodipodi:role="line"
         style="font-style:normal;font-variant:normal;font-weight:normal;font-stretch:normal;font-family:Georgia;-inkscape-font-specification:Georgia;fill:#ffffff;fill-opacity:0.75;stroke-width:0.717644"
         x="66.106339"
         y="156.19878"
         id="tspan8649-8-0-8">Nulla neque enim ligula</tspan><tspan
         sodipodi:role="line"
         style="font-style:normal;font-variant:normal;font-weight:normal;font-stretch:normal;font-family:Georgia;-inkscape-font-specification:Georgia;fill:#ffffff;fill-opacity:0.75;stroke-width:0.717644"
         x="66.106339"
         y="168.85561"
         id="tspan8658-6-4-3"> id venenatis dolor</tspan></text><text
       xml:space="preserve"
       style="font-weight:bold;font-size:10.1255px;font-family:Georgia;-inkscape-font-specification:'Georgia Bold';text-align:center;text-anchor:middle;fill:#ffffff;fill-opacity:0.75;stroke-width:0.717644"
       x="144.67194"
       y="16.386969"
       id="text5538-2"><tspan
         sodipodi:role="line"
         id="tspan5536-1"
         style="font-style:normal;font-variant:normal;font-weight:normal;font-stretch:normal;font-family:Georgia;-inkscape-font-specification:Georgia;fill:#ffffff;fill-opacity:0.75;stroke-width:0.717644"
         x="144.67194"
         y="16.386969">T1</tspan></text><text
       xml:space="preserve"
       style="font-weight:bold;font-size:10.1255px;font-family:Georgia;-inkscape-font-specification:'Georgia Bold';text-align:center;text-anchor:middle;fill:#ffffff;fill-opacity:0.75;stroke-width:0.717644"
       x="166.76573"
       y="16.519215"
       id="text5538-2-3"><tspan
         sodipodi:role="line"
         id="tspan5536-1-5"
         style="font-style:normal;font-variant:normal;font-weight:normal;font-stretch:normal;font-family:Georgia;-inkscape-font-specification:Georgia;fill:#ffffff;fill-opacity:0.75;stroke-width:0.717644"
         x="166.76573"
         y="16.519215">T2</tspan></text><text
       xml:space="preserve"
       style="font-weight:bold;font-size:10.1255px;font-family:Georgia;-inkscape-font-specification:'Georgia Bold';text-align:center;text-anchor:middle;fill:#ffffff;fill-opacity:0.75;stroke-width:0.717644"
       x="188.90411"
       y="16.519215"
       id="text5538-2-3-0"><tspan
         sodipodi:role="line"
         id="tspan5536-1-5-7"
         style="font-style:normal;font-variant:normal;font-weight:normal;font-stretch:normal;font-family:Georgia;-inkscape-font-specification:Georgia;fill:#ffffff;fill-opacity:0.75;stroke-width:0.717644"
         x="188.90411"
         y="16.519215">T3</tspan></text><path
       d="m 150.96759,31.646224 c 0.37296,0.372956 0.37296,0.978635 0,1.35159 l -7.63814,7.638131 c -0.37295,0.372956 -0.97864,0.372956 -1.35158,0 l -3.81906,-3.819065 c -0.37297,-0.372956 -0.37297,-0.978637 0,-1.351592 0.37295,-0.372955 0.97863,-0.372955 1.35158,0 l 3.14476,3.141778 6.96383,-6.960842 c 0.37295,-0.372956 0.97864,-0.372956 1.3516,0 z"
       id="path11399"
       style="fill:#00ff00;fill-opacity:0.501887;stroke-width:0.0298364" /><path
       d="m 152.1615,56.174918 c 0.37294,0.372954 0.37294,0.978635 0,1.351591 l -7.63815,7.63813 c -0.37294,0.372956 -0.97863,0.372956 -1.3516,0 l -3.81905,-3.819065 c -0.37295,-0.372957 -0.37295,-0.978635 0,-1.351591 0.37296,-0.372956 0.97863,-0.372956 1.35159,0 l 3.14476,3.141778 6.96384,-6.960843 c 0.37294,-0.372956 0.97863,-0.372956 1.35158,0 z"
       id="path11399-4"
       style="fill:#00ff00;fill-opacity:0.501887;stroke-width:0.0298364" /><path
       d="m 173.02678,31.513977 c 0.37296,0.372957 0.37296,0.978635 0,1.351591 l -7.63813,7.638131 c -0.37295,0.372956 -0.97862,0.372956 -1.35159,0 L 160.218,36.684634 c -0.37296,-0.372956 -0.37296,-0.978636 0,-1.351592 0.37296,-0.372955 0.97863,-0.372955 1.35159,0 l 3.14476,3.141778 6.96383,-6.960843 c 0.37295,-0.372954 0.97863,-0.372954 1.35159,0 z"
       id="path11399-1"
       style="fill:#00ff00;fill-opacity:0.501887;stroke-width:0.0298364" /><path
       d="m 173.02679,56.307163 c 0.37296,0.372956 0.37296,0.978635 0,1.351592 l -7.63813,7.63813 c -0.37295,0.372957 -0.97862,0.372957 -1.35159,0 L 160.218,61.477819 c -0.37295,-0.372955 -0.37295,-0.978634 0,-1.35159 0.37297,-0.372955 0.97864,-0.372955 1.3516,0 l 3.14475,3.141777 6.96384,-6.960843 c 0.37295,-0.372955 0.97863,-0.372955 1.35159,0 z"
       id="path11399-7"
       style="fill:#00ff00;fill-opacity:0.501887;stroke-width:0.0298364" /><path
       d="m 173.02679,80.571362 c 0.37296,0.372957 0.37296,0.978632 0,1.351589 l -7.63813,7.638133 c -0.37295,0.372947 -0.97862,0.372947 -1.35159,0 L 160.218,85.742012 c -0.37295,-0.372947 -0.37295,-0.978631 0,-1.351588 0.37297,-0.372957 0.97864,-0.372957 1.3516,0 l 3.14475,3.141779 6.96384,-6.960841 c 0.37295,-0.372957 0.97863,-0.372957 1.35159,0 z"
       id="path11399-15"
       style="fill:#00ff00;fill-opacity:0.501887;stroke-width:0.0298364" /><path
       d="m 195.08602,31.646224 c 0.37297,0.372955 0.37297,0.978635 0,1.351591 l -7.63812,7.63813 c -0.37296,0.372957 -0.97864,0.372957 -1.35159,0 l -3.81907,-3.819065 c -0.37296,-0.372955 -0.37296,-0.978636 0,-1.351591 0.37295,-0.372955 0.97863,-0.372955 1.35159,0 l 3.14475,3.141778 6.96384,-6.960843 c 0.37294,-0.372956 0.97864,-0.372956 1.35159,0 z"
       id="path11399-6"
       style="fill:#00ff00;fill-opacity:0.501887;stroke-width:0.0298364" /><path
       d="m 195.08602,56.174916 c 0.37296,0.372956 0.37296,0.978636 0,1.351592 l -7.63813,7.63813 c -0.37296,0.372957 -0.97864,0.372957 -1.35159,0 l -3.81907,-3.819064 c -0.37295,-0.372957 -0.37295,-0.978636 0,-1.351591 0.37295,-0.372956 0.97864,-0.372956 1.35159,0 l 3.14476,3.141778 6.96383,-6.960844 c 0.37295,-0.372956 0.97864,-0.372956 1.3516,0 z"
       id="path11399-2"
       style="fill:#00ff00;fill-opacity:0.501887;stroke-width:0.0298364" /><path
       d="m 195.08602,80.70362 c 0.37296,0.372957 0.37296,0.978631 0,1.351589 l -7.63813,7.638133 c -0.37296,0.372937 -0.97864,0.372937 -1.35159,0 l -3.81907,-3.819082 c -0.37295,-0.372947 -0.37295,-0.978621 0,-1.351578 0.37295,-0.372958 0.97864,-0.372958 1.35159,0 l 3.14476,3.141778 6.96383,-6.96084 c 0.37295,-0.372967 0.97864,-0.372967 1.3516,0 z"
       id="path11399-2-1"
       style="fill:#00ff00;fill-opacity:0.501887;stroke-width:0.0298364" /><path
       d="m 195.08602,105.23231 c 0.37296,0.37296 0.37296,0.97863 0,1.35159 l -7.63813,7.63813 c -0.37296,0.37295 -0.97864,0.37295 -1.35159,0 l -3.81907,-3.81908 c -0.37295,-0.37295 -0.37295,-0.97862 0,-1.35158 0.37295,-0.37296 0.97864,-0.37296 1.35159,0 l 3.14476,3.14178 6.96383,-6.96084 c 0.37295,-0.37297 0.97864,-0.37297 1.3516,0 z"
       id="path11399-2-2"
       style="fill:#00ff00;fill-opacity:0.501887;stroke-width:0.0298364" /><path
       d="m 173.02679,105.36456 c 0.37296,0.37295 0.37296,0.97863 0,1.35158 l -7.63814,7.63813 c -0.37294,0.37296 -0.97861,0.37296 -1.35159,0 L 160.218,110.5352 c -0.37296,-0.37295 -0.37296,-0.97863 0,-1.35158 0.37296,-0.37296 0.97863,-0.37296 1.35159,0 l 3.14476,3.14178 6.96383,-6.96084 c 0.37295,-0.37297 0.97863,-0.37297 1.35159,0 z"
       id="path11399-2-2-0"
       style="fill:#00ff00;fill-opacity:0.501887;stroke-width:0.0298364" /><path
       d="m 195.08602,129.761 c 0.37296,0.37295 0.37296,0.97863 0,1.35159 l -7.63813,7.63814 c -0.37296,0.37294 -0.97864,0.37294 -1.35159,0 l -3.81907,-3.81908 c -0.37295,-0.37296 -0.37295,-0.97864 0,-1.35159 0.37295,-0.37295 0.97864,-0.37295 1.35159,0 l 3.14476,3.14178 6.96383,-6.96084 c 0.37295,-0.37296 0.97864,-0.37296 1.3516,0 z"
       id="path11399-2-8"
       style="fill:#00ff00;fill-opacity:0.501887;stroke-width:0.0298364" /><path
       d="m 195.08602,154.28966 c 0.37296,0.37297 0.37296,0.97864 0,1.3516 l -7.63813,7.63813 c -0.37296,0.37295 -0.97864,0.37295 -1.35159,0 l -3.81907,-3.81907 c -0.37295,-0.37296 -0.37295,-0.97862 0,-1.35159 0.37295,-0.37295 0.97864,-0.37295 1.35159,0 l 3.14476,3.14178 6.96383,-6.96085 c 0.37295,-0.37295 0.97864,-0.37295 1.3516,0 z"
       id="path11399-2-8-2"
       style="fill:#00ff00;fill-opacity:0.501887;stroke-width:0.0298364" /><path
       d="m 148.93075,82.141772 c 0.3625,-0.362518 0.3625,-0.951239 0,-1.313746 -0.36252,-0.362508 -0.95122,-0.362508 -1.31375,0 l -3.05381,3.056703 -3.0567,-3.053806 c -0.36252,-0.362508 -0.95124,-0.362508 -1.31375,0 -0.36251,0.362517 -0.36251,0.951239 0,1.313746 l 3.0567,3.053807 -3.0538,3.056694 c -0.36251,0.362527 -0.36251,0.951239 0,1.313746 0.36252,0.362518 0.95124,0.362518 1.31376,0 l 3.05379,-3.056694 3.05671,3.053797 c 0.36251,0.362508 0.95123,0.362508 1.31373,0 0.36252,-0.362517 0.36252,-0.951229 0,-1.313736 l -3.0567,-3.053807 z"
       id="path11408-2-3"
       style="fill:#ff0000;fill-opacity:0.501887;stroke-width:0.029001" /><path
       d="m 148.93075,106.67047 c 0.3625,-0.36253 0.3625,-0.95125 0,-1.31374 -0.36252,-0.36252 -0.95122,-0.36252 -1.31375,0 l -3.05381,3.0567 -3.0567,-3.05382 c -0.36252,-0.36251 -0.95124,-0.36251 -1.31375,0 -0.36251,0.36252 -0.36251,0.95124 0,1.31375 l 3.0567,3.05381 -3.0538,3.05669 c -0.36251,0.36253 -0.36251,0.95125 0,1.31375 0.36252,0.36251 0.95124,0.36251 1.31376,0 l 3.05379,-3.0567 3.05671,3.05381 c 0.36251,0.36251 0.95123,0.36251 1.31373,0 0.36252,-0.36253 0.36252,-0.95124 0,-1.31375 l -3.0567,-3.0538 z"
       id="path11408-2-3-7"
       style="fill:#ff0000;fill-opacity:0.501887;stroke-width:0.029001" /><path
       d="m 148.93075,131.19916 c 0.3625,-0.36253 0.3625,-0.95123 0,-1.31375 -0.36252,-0.36252 -0.95122,-0.36252 -1.31375,0 l -3.05381,3.0567 -3.0567,-3.05381 c -0.36252,-0.3625 -0.95124,-0.3625 -1.31375,0 -0.36251,0.36252 -0.36251,0.95125 0,1.31375 l 3.0567,3.0538 -3.0538,3.05671 c -0.36251,0.36251 -0.36251,0.95123 0,1.31374 0.36252,0.36251 0.95124,0.36251 1.31376,0 l 3.05379,-3.0567 3.05671,3.0538 c 0.36251,0.36252 0.95123,0.36252 1.31373,0 0.36252,-0.36251 0.36252,-0.95121 0,-1.31374 l -3.0567,-3.05381 z"
       id="path11408-2-3-5"
       style="fill:#ff0000;fill-opacity:0.501887;stroke-width:0.029001" /><path
       d="m 170.98995,131.19916 c 0.3625,-0.36253 0.3625,-0.95123 0,-1.31375 -0.36252,-0.36252 -0.95123,-0.36252 -1.31375,0 l -3.0538,3.0567 -3.05671,-3.05381 c -0.36251,-0.3625 -0.95124,-0.3625 -1.31374,0 -0.36251,0.36252 -0.36251,0.95125 0,1.31375 l 3.05669,3.0538 -3.05381,3.05671 c -0.36249,0.36251 -0.36249,0.95123 0,1.31374 0.36252,0.36251 0.95125,0.36251 1.31375,0 l 3.05382,-3.0567 3.0567,3.0538 c 0.36252,0.36252 0.95123,0.36252 1.31374,0 0.36252,-0.36251 0.36252,-0.95121 0,-1.31374 l -3.05672,-3.05381 z"
       id="path11408-2-3-3"
       style="fill:#ff0000;fill-opacity:0.501887;stroke-width:0.029001" /><path
       d="m 149.52405,155.94323 c 0.41174,-0.41176 0.41174,-1.08044 0,-1.49222 -0.41178,-0.41175 -1.08046,-0.41175 -1.49222,0 l -3.46865,3.47196 -3.47196,-3.46866 c -0.41175,-0.41176 -1.08046,-0.41176 -1.4922,0 -0.41176,0.41176 -0.41176,1.08046 0,1.49221 l 3.47192,3.46865 -3.46864,3.47195 c -0.41176,0.41176 -0.41176,1.08045 0,1.49221 0.41176,0.41176 1.08046,0.41176 1.49222,0 l 3.46866,-3.47195 3.47193,3.46866 c 0.41178,0.41175 1.08046,0.41175 1.49221,0 0.41177,-0.41176 0.41177,-1.08045 0,-1.49221 l -3.47195,-3.46866 z"
       id="path11408-2-3-1"
       style="fill:#ff0000;fill-opacity:0.501887;stroke-width:0.0329406" /><path
       d="m 171.58327,155.94323 c 0.41175,-0.41176 0.41175,-1.08044 0,-1.49222 -0.41176,-0.41175 -1.08045,-0.41175 -1.49221,0 l -3.46866,3.47196 -3.47195,-3.46866 c -0.41176,-0.41176 -1.08046,-0.41176 -1.49222,0 -0.41175,0.41176 -0.41175,1.08046 0,1.49221 l 3.47195,3.46865 -3.46866,3.47195 c -0.41174,0.41176 -0.41174,1.08045 0,1.49221 0.41177,0.41176 1.08048,0.41176 1.49223,0 l 3.46865,-3.47195 3.47195,3.46866 c 0.41176,0.41175 1.08044,0.41175 1.49219,0 0.41177,-0.41176 0.41177,-1.08045 0,-1.49221 l -3.47194,-3.46866 z"
       id="path11408-2-3-1-2"
       style="fill:#ff0000;fill-opacity:0.501887;stroke-width:0.0329406" /></g></svg>
