<?xml version="1.0" encoding="UTF-8" standalone="no"?>
<svg
   viewBox="0 0 48 48"
   version="1.1"
   id="svg4"
   sodipodi:docname="twitter-brands.svg"
   inkscape:version="1.2 (dc2aedaf03, 2022-05-15)"
   width="48"
   height="48"
   xmlns:inkscape="http://www.inkscape.org/namespaces/inkscape"
   xmlns:sodipodi="http://sodipodi.sourceforge.net/DTD/sodipodi-0.dtd"
   xmlns="http://www.w3.org/2000/svg"
   xmlns:svg="http://www.w3.org/2000/svg">
  <defs
     id="defs8" />
  <sodipodi:namedview
     id="namedview6"
     pagecolor="#505050"
     bordercolor="#eeeeee"
     borderopacity="1"
     inkscape:showpageshadow="0"
     inkscape:pageopacity="0"
     inkscape:pagecheckerboard="0"
     inkscape:deskcolor="#505050"
     showgrid="false"
     inkscape:zoom="6.4765624"
     inkscape:cx="2.5476478"
     inkscape:cy="17.910736"
     inkscape:window-width="1920"
     inkscape:window-height="1009"
     inkscape:window-x="-8"
     inkscape:window-y="-8"
     inkscape:window-maximized="1"
     inkscape:current-layer="svg4" />
  <!--! Font Awesome Pro 6.1.1 by @fontawesome - https://fontawesome.com License - https://fontawesome.com/license (Commercial License) Copyright 2022 Fonticons, Inc. -->
  <path
     d="m 43.066071,14.22329 c 0.0305,0.426373 0.0305,0.852843 0.0305,1.279226 2e-6,13.005049 -9.898436,27.989918 -27.989916,27.989918 C 9.5330112,43.492434 4.3553642,41.878148 0,39.07623 c 0.79190641,0.09131 1.5532525,0.121777 2.3756321,0.121777 4.5989272,0 8.8325049,-1.553253 12.2132399,-4.203008 -4.324891,-0.09141 -7.9492856,-2.923889 -9.1980384,-6.822407 0.609193,0.09131 1.2182892,0.15225 1.8579458,0.15225 0.8832195,0 1.7665359,-0.121873 2.5888187,-0.334973 -4.5076044,-0.91378 -7.888436,-4.873137 -7.888436,-9.654875 v -0.121786 c 1.3096024,0.73097 2.8325753,1.187816 4.4466773,1.248666 -2.6497651,-1.766546 -4.3857406,-4.781738 -4.3857406,-8.192946 0,-1.8273746 0.4872228,-3.5025106 1.3400659,-4.9644496 4.8426838,5.9695526 12.1219263,9.8679736 20.2843023,10.2944436 -0.15225,-0.73097 -0.24366,-1.492316 -0.24366,-2.253759 0,-5.4213936 4.385837,-9.8375973 9.837608,-9.8375973 2.832478,0 5.390833,1.1878157 7.187842,3.1066017 2.223286,-0.426373 4.355268,-1.248753 6.243677,-2.375632 -0.731066,2.284319 -2.284319,4.203105 -4.324891,5.4212966 C 44.314766,10.446742 46.233561,9.8983994 48,9.1370534 46.660118,11.086215 44.984895,12.82219 43.06611,14.22329 Z"
     id="path2"
     style="fill:#323232;fill-opacity:1;stroke-width:0.0937504" />
</svg>
